<svg width="109" height="43" viewBox="0 0 109 43" fill="none" xmlns="http://www.w3.org/2000/svg">
<ellipse cx="54.1979" cy="21.5" rx="54.1979" ry="21.5" fill="#FFD726" fill-opacity="0.44"/>
<path d="M29.1631 22.3352C29.2055 22.3423 29.2478 22.3458 29.2901 22.3458C29.3395 22.3458 29.3889 22.3458 29.4383 22.3458C30.0523 22.3458 30.631 22.2152 31.1744 21.9541C31.7248 21.686 32.2047 21.3472 32.614 20.9379C33.0233 20.5286 33.3444 20.0734 33.5773 19.5724C33.8172 19.0713 33.9372 18.5844 33.9372 18.1116C33.9372 17.7728 33.8737 17.4517 33.7466 17.1483C33.6267 16.8448 33.4326 16.5802 33.1644 16.3544C32.9033 16.1285 32.5646 15.9486 32.1482 15.8145C31.7389 15.6804 31.2485 15.6134 30.6768 15.6134C30.0347 15.6134 29.4807 15.6734 29.0149 15.7933C28.5562 15.9133 28.1575 16.0686 27.8187 16.2591C27.4871 16.4496 27.2048 16.6684 26.9719 16.9154C26.7461 17.1624 26.5485 17.4165 26.3791 17.6776C26.2168 17.9387 26.0686 18.1927 25.9345 18.4397C25.8004 18.6867 25.6593 18.9055 25.5111 19.096C25.37 19.2866 25.2112 19.4418 25.0348 19.5618C24.8583 19.6818 24.6396 19.7417 24.3784 19.7417C24.0256 19.7417 23.761 19.6535 23.5845 19.4771C23.4081 19.2936 23.3199 19.0396 23.3199 18.7149C23.3199 18.4115 23.4011 18.0833 23.5634 17.7305C23.7327 17.3776 23.9691 17.0248 24.2726 16.6719C24.5831 16.3191 24.9607 15.9804 25.4052 15.6557C25.8498 15.324 26.3474 15.0347 26.8978 14.7877C27.4553 14.5337 28.0622 14.3325 28.7185 14.1843C29.3748 14.0291 30.0699 13.9515 30.8039 13.9515C31.5237 13.9515 32.2117 14.0432 32.868 14.2267C33.5314 14.4102 34.1171 14.6854 34.6252 15.0524C35.1333 15.4123 35.5356 15.8674 35.832 16.4179C36.1354 16.9683 36.2872 17.6105 36.2872 18.3445C36.2872 18.8384 36.1954 19.3113 36.0119 19.7629C35.8355 20.2075 35.5956 20.6274 35.2921 21.0226C34.9887 21.4107 34.6323 21.7706 34.223 22.1023C33.8207 22.4269 33.3903 22.7163 32.9316 22.9703C32.4729 23.2244 32 23.4396 31.5131 23.616C31.0332 23.7925 30.5675 23.9195 30.1158 23.9971C30.1793 24.3288 30.2816 24.7028 30.4228 25.1192C30.571 25.5285 30.7474 25.9202 30.9521 26.2942C31.1638 26.6612 31.3967 26.9752 31.6507 27.2363C31.9048 27.4974 32.1729 27.6385 32.4552 27.6597C32.5117 27.6668 32.5646 27.6703 32.614 27.6703C32.6634 27.6703 32.7128 27.6703 32.7622 27.6703C33.2774 27.6703 33.7361 27.5856 34.1383 27.4163C34.5406 27.2469 34.8758 27.0599 35.1439 26.8552C35.4615 26.6223 35.7367 26.3506 35.9696 26.0401C36.1884 25.7931 36.4107 25.6696 36.6365 25.6696C36.7776 25.6696 36.8976 25.719 36.9964 25.8178C37.0952 25.9166 37.1446 26.0507 37.1446 26.2201C37.1446 26.3824 37.0917 26.5729 36.9858 26.7917C36.887 27.0034 36.7141 27.2257 36.4671 27.4586C35.7403 28.1431 35.0275 28.6442 34.3288 28.9617C33.6373 29.2723 32.981 29.4275 32.3599 29.4275C31.8518 29.4275 31.3825 29.2828 30.9521 28.9935C30.5216 28.7042 30.1299 28.3125 29.7771 27.8185C29.4242 27.3245 29.1031 26.7494 28.8138 26.0931C28.5244 25.4297 28.2669 24.7311 28.041 23.9971C27.914 24.2865 27.7835 24.6287 27.6494 25.0239C27.5153 25.4121 27.3706 25.8143 27.2154 26.2307C27.0601 26.647 26.8978 27.0599 26.7284 27.4692C26.5591 27.8714 26.3721 28.2349 26.1674 28.5595C25.9627 28.8771 25.744 29.1346 25.5111 29.3322C25.2782 29.5298 25.0242 29.6286 24.7489 29.6286C24.5231 29.6286 24.3396 29.5933 24.1985 29.5228C24.0574 29.4522 23.948 29.364 23.8703 29.2581C23.7927 29.1523 23.7363 29.0358 23.701 28.9088C23.6727 28.7818 23.6586 28.6618 23.6586 28.5489C23.6586 28.3866 23.6798 28.2208 23.7221 28.0514C23.7645 27.882 23.8245 27.7232 23.9021 27.575L27.0248 21.8589C27.293 21.379 27.5612 20.9167 27.8293 20.4721C28.1046 20.0205 28.3692 19.6218 28.6232 19.276C28.8844 18.9302 29.1278 18.655 29.3536 18.4503C29.5865 18.2386 29.7947 18.1327 29.9782 18.1327C30.0276 18.1327 30.0876 18.1433 30.1581 18.1645C30.2287 18.1786 30.2922 18.2104 30.3487 18.2598C30.4051 18.3021 30.4545 18.3692 30.4969 18.4609C30.5392 18.5456 30.5604 18.655 30.5604 18.789C30.5604 18.9231 30.5216 19.1101 30.444 19.3501C30.3663 19.59 30.264 19.8652 30.137 20.1758C30.01 20.4863 29.8618 20.8285 29.6924 21.2025C29.523 21.5695 29.3466 21.9471 29.1631 22.3352ZM39.7592 23.3938C39.4275 23.3938 39.1065 23.4784 38.7959 23.6478C38.4925 23.8101 38.2208 24.0289 37.9809 24.3041C37.748 24.5723 37.561 24.8793 37.4198 25.225C37.2787 25.5638 37.2081 25.9131 37.2081 26.273C37.2081 26.4071 37.2187 26.5553 37.2399 26.7176C37.261 26.8729 37.3034 27.0211 37.3669 27.1622C37.4375 27.2963 37.5363 27.4092 37.6633 27.5009C37.7903 27.5927 37.9597 27.6385 38.1714 27.6385C38.496 27.6385 38.8101 27.5539 39.1135 27.3845C39.424 27.2081 39.6992 26.9822 39.9392 26.707C40.1791 26.4247 40.3697 26.1072 40.5108 25.7543C40.6519 25.4015 40.7225 25.0451 40.7225 24.6852C40.7225 24.544 40.7119 24.3994 40.6908 24.2512C40.6766 24.0959 40.6343 23.9548 40.5637 23.8278C40.5002 23.7007 40.4049 23.5984 40.2779 23.5208C40.1509 23.4361 39.978 23.3938 39.7592 23.3938ZM40.3097 21.5307C40.5778 21.5307 40.8636 21.566 41.1671 21.6366C41.4776 21.7071 41.7634 21.8271 42.0245 21.9965C42.2856 22.1658 42.5009 22.3917 42.6702 22.6739C42.8467 22.9492 42.9349 23.2914 42.9349 23.7007C42.9349 23.9124 42.9067 24.1559 42.8502 24.4311C42.7937 24.6993 42.7091 24.9816 42.5961 25.278C42.6667 25.3627 42.7479 25.4226 42.8396 25.4579C42.9314 25.4932 43.0302 25.5109 43.136 25.5109C43.2842 25.5109 43.4465 25.4685 43.6229 25.3838C43.8064 25.2991 43.9934 25.1898 44.184 25.0557C44.3745 24.9216 44.5651 24.7699 44.7556 24.6005C44.9461 24.4311 45.1261 24.2618 45.2955 24.0924C45.4648 23.923 45.6166 23.7642 45.7506 23.616C45.8918 23.4608 46.0082 23.3302 46.1 23.2244C46.1494 23.175 46.2093 23.1503 46.2799 23.1503C46.3787 23.1503 46.4669 23.2032 46.5445 23.3091C46.6222 23.4079 46.661 23.549 46.661 23.7325C46.661 23.916 46.6045 24.1277 46.4916 24.3676C46.3858 24.6076 46.1846 24.8581 45.8882 25.1192C45.7189 25.3027 45.5248 25.5144 45.306 25.7543C45.0873 25.9943 44.8544 26.2201 44.6074 26.4318C44.3604 26.6435 44.1028 26.8235 43.8347 26.9717C43.5665 27.1199 43.2983 27.194 43.0302 27.194C42.8467 27.194 42.6667 27.1657 42.4903 27.1093C42.3209 27.0528 42.148 26.9611 41.9716 26.834C41.7175 27.2292 41.4282 27.5892 41.1036 27.9138C40.779 28.2384 40.4155 28.5171 40.0133 28.75C39.6181 28.9829 39.1876 29.1629 38.7218 29.2899C38.2631 29.424 37.7727 29.491 37.2505 29.491C37.0529 29.491 36.8235 29.4522 36.5624 29.3746C36.3013 29.2969 36.0508 29.1699 35.8108 28.9935C35.5779 28.81 35.3803 28.5736 35.218 28.2843C35.0557 27.9949 34.9746 27.6421 34.9746 27.2257C34.9746 26.9434 35.0204 26.6047 35.1122 26.2095C35.2039 25.8143 35.3415 25.4085 35.525 24.9922C35.7156 24.5687 35.952 24.1524 36.2342 23.7431C36.5236 23.3267 36.8658 22.9562 37.261 22.6316C37.6562 22.2999 38.1079 22.0353 38.616 21.8377C39.1241 21.633 39.6887 21.5307 40.3097 21.5307ZM47.7195 23.2667C48.15 23.4926 48.5346 23.7501 48.8734 24.0395C49.2121 24.3288 49.4979 24.6358 49.7308 24.9604C49.9707 25.278 50.1507 25.6026 50.2707 25.9343C50.3977 26.266 50.4612 26.5906 50.4612 26.9081C50.4612 27.3104 50.3448 27.6738 50.1119 27.9985C49.886 28.316 49.5861 28.5877 49.2121 28.8135C48.8451 29.0323 48.4217 29.1982 47.9418 29.3111C47.469 29.431 46.9891 29.491 46.5022 29.491C46.1352 29.491 45.7789 29.4487 45.4331 29.364C45.0873 29.2864 44.7697 29.1629 44.4804 28.9935C44.1981 28.8241 43.9546 28.6089 43.75 28.3478C43.5453 28.0796 43.4006 27.762 43.316 27.3951C43.3018 27.3386 43.2948 27.2928 43.2948 27.2575C43.2948 27.0669 43.3618 26.9046 43.4959 26.7705C43.63 26.6294 43.7782 26.5588 43.9405 26.5588C44.0181 26.5588 44.1028 26.5729 44.1946 26.6012C44.2934 26.6294 44.3675 26.6929 44.4169 26.7917C44.5086 26.9611 44.6356 27.1128 44.7979 27.2469C44.9673 27.381 45.1543 27.4974 45.359 27.5962C45.5636 27.6879 45.7789 27.762 46.0047 27.8185C46.2376 27.8679 46.4634 27.8926 46.6822 27.8926C46.908 27.8926 47.1232 27.8714 47.3279 27.8291C47.5396 27.7867 47.7231 27.7197 47.8783 27.628C48.0406 27.5362 48.1677 27.4198 48.2594 27.2786C48.3511 27.1375 48.397 26.9646 48.397 26.76C48.397 26.4 48.3159 26.0684 48.1535 25.7649C47.9912 25.4615 47.7795 25.1827 47.5184 24.9287C47.2644 24.6675 46.9715 24.4276 46.6398 24.2088C46.3152 23.983 45.9906 23.7678 45.666 23.5631C45.6307 23.5419 45.5777 23.482 45.5072 23.3832C45.4366 23.2773 45.4013 23.1715 45.4013 23.0656C45.4013 22.9809 45.4225 22.9139 45.4648 22.8645C45.5777 22.7163 45.7083 22.5646 45.8565 22.4093C46.0047 22.254 46.1635 22.1129 46.3328 21.9859C46.5022 21.8518 46.6857 21.7459 46.8833 21.6683C47.0809 21.5836 47.2855 21.5413 47.4972 21.5413C47.6525 21.5413 47.7972 21.5625 47.9313 21.6048C48.0653 21.6471 48.1782 21.7036 48.27 21.7742C48.3617 21.8377 48.4323 21.9118 48.4817 21.9965C48.5382 22.0741 48.5664 22.1482 48.5664 22.2188C48.5664 22.3176 48.5417 22.4128 48.4923 22.5046C48.4429 22.5963 48.3758 22.6845 48.2912 22.7692C48.2135 22.8539 48.1218 22.9386 48.0159 23.0233C47.9171 23.1079 47.8183 23.1891 47.7195 23.2667ZM55.5317 22.9809C55.4964 22.9739 55.4646 22.9703 55.4364 22.9703C55.4082 22.9703 55.3764 22.9703 55.3411 22.9703C55.073 22.9703 54.8224 23.0233 54.5896 23.1291C54.3567 23.235 54.1414 23.3761 53.9438 23.5525C53.7533 23.7219 53.5804 23.916 53.4251 24.1347C53.2769 24.3535 53.1429 24.5723 53.0229 24.791C52.9029 25.0028 52.8006 25.2074 52.7159 25.405C52.6383 25.6026 52.5783 25.7684 52.536 25.9025C52.783 25.7755 53.037 25.6308 53.2981 25.4685C53.5663 25.3062 53.8168 25.151 54.0497 25.0028C54.2826 24.8546 54.4837 24.7205 54.6531 24.6005C54.8295 24.4805 54.953 24.3994 55.0236 24.357C55.3411 24.1594 55.5599 23.976 55.6799 23.8066C55.7998 23.6302 55.8598 23.4784 55.8598 23.3514C55.8598 23.2456 55.8245 23.1609 55.754 23.0974C55.6904 23.0338 55.6163 22.995 55.5317 22.9809ZM55.9127 21.5201C56.4985 21.5201 56.936 21.6613 57.2254 21.9435C57.5147 22.2258 57.6594 22.6175 57.6594 23.1185C57.6594 23.4149 57.5817 23.7254 57.4265 24.0501C57.2712 24.3747 57.0031 24.7064 56.622 25.0451C56.2409 25.3768 55.7293 25.719 55.0871 26.0719C54.4519 26.4177 53.6545 26.767 52.6947 27.1199C52.73 27.3245 52.8394 27.4868 53.0229 27.6068C53.2064 27.7197 53.4498 27.7762 53.7533 27.7762C54.0779 27.7762 54.4237 27.7303 54.7907 27.6385C55.1647 27.5398 55.5317 27.4163 55.8916 27.2681C56.2585 27.1199 56.6149 26.9611 56.9607 26.7917C57.3065 26.6153 57.617 26.4494 57.8922 26.2942C58.1745 26.1389 58.4074 26.0048 58.5909 25.8919C58.7814 25.779 58.9084 25.7085 58.972 25.6802C59.0355 25.6379 59.0919 25.6132 59.1413 25.6061C59.1978 25.5991 59.2472 25.5955 59.2895 25.5955C59.3742 25.5955 59.4448 25.6167 59.5012 25.6591C59.5577 25.6943 59.6036 25.7402 59.6389 25.7967C59.6812 25.8461 59.7094 25.9025 59.7235 25.966C59.7376 26.0225 59.7447 26.0719 59.7447 26.1142C59.7447 26.1777 59.7376 26.2554 59.7235 26.3471C59.7094 26.4318 59.6565 26.5306 59.5648 26.6435C59.5295 26.6788 59.4095 26.7741 59.2048 26.9293C59.0072 27.0846 58.7497 27.2681 58.4321 27.4798C58.1145 27.6915 57.744 27.9173 57.3206 28.1572C56.9043 28.3901 56.4597 28.6054 55.9868 28.803C55.5211 29.0006 55.0341 29.1629 54.526 29.2899C54.0179 29.424 53.5169 29.491 53.0229 29.491C52.5995 29.491 52.2219 29.4099 51.8902 29.2476C51.5656 29.0852 51.2869 28.8665 51.054 28.5912C50.8282 28.316 50.6553 27.9985 50.5353 27.6385C50.4153 27.2786 50.3553 26.9011 50.3553 26.5059C50.3553 26.2024 50.4153 25.8708 50.5353 25.5109C50.6553 25.1439 50.8282 24.7769 51.054 24.41C51.2798 24.043 51.555 23.6866 51.8797 23.3408C52.2113 22.988 52.5818 22.6775 52.9911 22.4093C53.4004 22.1411 53.8486 21.9259 54.3355 21.7636C54.8295 21.6013 55.3552 21.5201 55.9127 21.5201ZM60.3904 26.1672C60.3128 26.3295 60.2352 26.52 60.1575 26.7388C60.087 26.9505 60.0517 27.141 60.0517 27.3104C60.0517 27.4163 60.0729 27.5009 60.1152 27.5645C60.1575 27.628 60.2387 27.6597 60.3587 27.6597C60.5069 27.6597 60.6903 27.6174 60.9091 27.5327C61.1349 27.441 61.3749 27.3245 61.6289 27.1834C61.89 27.0352 62.1582 26.8693 62.4334 26.6859C62.7157 26.4953 62.9945 26.3012 63.2697 26.1036C63.5449 25.899 63.806 25.6979 64.053 25.5003C64.3071 25.2956 64.5329 25.1086 64.7305 24.9392C64.7869 24.8898 64.854 24.8546 64.9316 24.8334C65.0092 24.8122 65.0763 24.8016 65.1327 24.8016C65.2739 24.8016 65.3903 24.851 65.4821 24.9498C65.5738 25.0486 65.6197 25.1792 65.6197 25.3415C65.6197 25.4897 65.5703 25.6555 65.4715 25.839C65.3727 26.0225 65.1998 26.2024 64.9528 26.3789C64.5011 26.7952 64.046 27.1904 63.5873 27.5645C63.1285 27.9385 62.6698 28.2702 62.2111 28.5595C61.7595 28.8418 61.3078 29.0676 60.8562 29.237C60.4116 29.4063 59.9776 29.491 59.5542 29.491C59.2648 29.491 59.0214 29.4522 58.8238 29.3746C58.6332 29.2969 58.478 29.1911 58.358 29.057C58.2451 28.9229 58.1639 28.7641 58.1145 28.5807C58.0651 28.3972 58.0404 28.2031 58.0404 27.9985C58.0404 27.6527 58.0898 27.2998 58.1886 26.9399C58.2945 26.5729 58.418 26.2377 58.5591 25.9343C58.8061 25.3838 59.0566 24.8369 59.3107 24.2935C59.5648 23.7501 59.7976 23.2526 60.0093 22.801L63.2168 15.9733C63.3438 15.6981 63.5132 15.504 63.7249 15.3911C63.9436 15.2782 64.1624 15.2217 64.3812 15.2217C64.5999 15.2217 64.7975 15.2817 64.974 15.4017C65.1574 15.5216 65.2492 15.7157 65.2492 15.9839C65.2492 16.1109 65.2174 16.245 65.1539 16.3861C65.0975 16.5273 65.0234 16.679 64.9316 16.8413C64.7552 17.173 64.5435 17.5788 64.2965 18.0586C64.0565 18.5385 63.7954 19.0607 63.5132 19.6253C63.2379 20.1899 62.9521 20.7791 62.6557 21.3931C62.3664 22 62.0806 22.5928 61.7983 23.1715C61.5231 23.7501 61.262 24.3006 61.015 24.8228C60.775 25.338 60.5669 25.7861 60.3904 26.1672ZM75.4748 26.6964C75.1643 27.0493 74.8009 27.3951 74.3845 27.7338C73.9752 28.0655 73.5518 28.3619 73.1142 28.623C72.6767 28.8841 72.2462 29.0923 71.8228 29.2476C71.3994 29.4099 71.0183 29.491 70.6796 29.491C70.3408 29.491 70.0656 29.3957 69.8539 29.2052C69.6422 29.0147 69.5363 28.69 69.5363 28.2313C69.5363 27.9067 69.5928 27.5292 69.7057 27.0987C69.5222 27.3739 69.2929 27.6527 69.0176 27.9349C68.7424 28.2172 68.4284 28.4748 68.0755 28.7077C67.7227 28.9406 67.3275 29.1276 66.8899 29.2687C66.4524 29.4169 65.9761 29.491 65.4609 29.491C65.228 29.491 65.0022 29.4663 64.7834 29.4169C64.5717 29.3675 64.3847 29.2828 64.2224 29.1629C64.0601 29.0429 63.9295 28.8841 63.8307 28.6865C63.7319 28.4819 63.6825 28.2278 63.6825 27.9244C63.6825 27.9173 63.6966 27.8114 63.7249 27.6068C63.7531 27.3951 63.8413 27.0669 63.9895 26.6223C64.1448 26.1707 64.3812 25.5885 64.6987 24.8757C65.0163 24.163 65.4644 23.2985 66.0431 22.2823C66.1913 22.0141 66.3607 21.8236 66.5512 21.7107C66.7488 21.5907 66.9605 21.5307 67.1863 21.5307C67.2851 21.5307 67.3875 21.5448 67.4933 21.573C67.5992 21.5942 67.698 21.633 67.7897 21.6895C67.8815 21.7389 67.9555 21.8059 68.012 21.8906C68.0685 21.9682 68.0967 22.06 68.0967 22.1658C68.0967 22.2364 68.0861 22.3034 68.0649 22.367C68.0296 22.4869 67.952 22.6457 67.8321 22.8433C67.7191 23.0338 67.5851 23.2561 67.4298 23.5102C67.2745 23.7572 67.1087 24.0254 66.9323 24.3147C66.7629 24.604 66.6041 24.904 66.4559 25.2145C66.3077 25.525 66.1807 25.8425 66.0749 26.1672C65.969 26.4847 65.909 26.7952 65.8949 27.0987C65.8949 27.2257 65.9302 27.3422 66.0008 27.448C66.0713 27.5539 66.1878 27.6068 66.3501 27.6068C66.8088 27.6068 67.2463 27.4798 67.6627 27.2257C68.079 26.9717 68.4637 26.6576 68.8165 26.2836C69.1694 25.9025 69.4869 25.4967 69.7692 25.0663C70.0585 24.6287 70.2985 24.23 70.489 23.8701C70.6231 23.6302 70.7395 23.3726 70.8383 23.0974C70.9442 22.8221 71.0571 22.5681 71.1771 22.3352C71.297 22.1023 71.4347 21.9082 71.5899 21.753C71.7452 21.5977 71.9392 21.5201 72.1721 21.5201C72.4262 21.5201 72.6273 21.6013 72.7755 21.7636C72.9237 21.9259 72.9978 22.12 72.9978 22.3458C72.9978 22.4728 72.9484 22.6492 72.8496 22.8751C72.7579 23.0938 72.6379 23.3479 72.4897 23.6372C72.3485 23.9195 72.1933 24.223 72.0239 24.5476C71.8546 24.8722 71.6958 25.2039 71.5476 25.5426C71.4064 25.8743 71.2865 26.2024 71.1877 26.5271C71.0959 26.8446 71.0501 27.141 71.0501 27.4163C71.0501 27.6703 71.2053 27.7973 71.5158 27.7973C71.7346 27.7973 72.0063 27.7338 72.3309 27.6068C72.6555 27.4798 72.9943 27.3033 73.3471 27.0775C73.707 26.8446 74.0634 26.5729 74.4163 26.2624C74.7762 25.9519 75.0937 25.6167 75.3689 25.2568L75.4748 26.6964ZM80.4183 22.5152C80.6158 22.3599 80.7817 22.2435 80.9158 22.1658C81.0569 22.0811 81.1769 22.0212 81.2757 21.9859C81.3745 21.9435 81.4627 21.9188 81.5403 21.9118C81.625 21.9047 81.7097 21.9012 81.7944 21.9012C81.9426 21.9012 82.0484 21.9576 82.1119 22.0706C82.1754 22.1764 82.2072 22.2893 82.2072 22.4093C82.2072 22.5081 82.1896 22.5998 82.1543 22.6845L79.7831 27.628C80.1219 27.3739 80.51 27.1269 80.9475 26.887C81.3921 26.64 81.8155 26.4212 82.2178 26.2307C82.6271 26.0331 82.9764 25.8743 83.2658 25.7543C83.5622 25.6344 83.7315 25.5744 83.7739 25.5744C83.9503 25.5744 84.1055 25.6414 84.2396 25.7755C84.3737 25.9096 84.4408 26.0789 84.4408 26.2836C84.4408 26.4671 84.3702 26.6612 84.229 26.8658C84.095 27.0705 83.855 27.2681 83.5092 27.4586C83.0152 27.7338 82.5848 27.9702 82.2178 28.1678C81.8508 28.3584 81.5262 28.5313 81.2439 28.6865C80.9616 28.8418 80.7111 28.9829 80.4923 29.1099C80.2736 29.237 80.0654 29.3675 79.8678 29.5016C79.6773 29.6357 79.4867 29.7768 79.2962 29.925C79.1127 30.0803 78.9116 30.2602 78.6928 30.4649C78.5305 30.8883 78.3682 31.2941 78.2059 31.6822C78.0506 32.0704 77.906 32.4126 77.7719 32.709C77.6448 33.0054 77.539 33.2454 77.4543 33.4288C77.3696 33.6123 77.3237 33.7111 77.3167 33.7252C76.7451 34.9108 76.117 35.5036 75.4325 35.5036C75.1502 35.5036 74.9208 35.4083 74.7444 35.2178C74.568 35.0343 74.4798 34.7838 74.4798 34.4662C74.4798 34.1698 74.5151 33.8734 74.5856 33.577C74.6632 33.2877 74.7938 32.9666 74.9773 32.6137C75.1678 32.2609 75.4148 31.8657 75.7183 31.4282C76.0288 30.9977 76.4169 30.4896 76.8827 29.9039L78.9998 25.6167C77.9412 26.8729 76.9815 27.8326 76.1205 28.496C75.2596 29.1593 74.4551 29.491 73.707 29.491C73.4671 29.491 73.2624 29.4346 73.0931 29.3216C72.9237 29.2158 72.839 29.0358 72.839 28.7818C72.839 28.4289 72.9237 28.0302 73.0931 27.5856C73.1919 27.3457 73.2907 27.1269 73.3895 26.9293C73.4883 26.7247 73.5906 26.5235 73.6964 26.3259C73.8023 26.1213 73.9117 25.9025 74.0246 25.6696C74.1446 25.4368 74.2716 25.1756 74.4057 24.8863C74.5468 24.5899 74.6985 24.2512 74.8608 23.8701C75.0302 23.482 75.2172 23.0303 75.4219 22.5152C75.563 22.2399 75.7465 22.0423 75.9723 21.9224C76.1982 21.7953 76.4169 21.7318 76.6286 21.7318C76.8474 21.7318 77.0309 21.7848 77.1791 21.8906C77.3343 21.9894 77.412 22.1235 77.412 22.2929C77.412 22.3775 77.3978 22.4516 77.3696 22.5152L75.4325 26.5482C75.3337 26.7529 75.2843 26.9152 75.2843 27.0352C75.2843 27.141 75.3266 27.194 75.4113 27.194C75.4889 27.194 75.5877 27.1551 75.7077 27.0775C75.8277 26.9999 75.9406 26.9117 76.0464 26.8129L80.4183 22.5152ZM86.0603 20.0699C86.0603 19.9076 86.0886 19.7417 86.145 19.5724C86.2085 19.3959 86.3003 19.2372 86.4202 19.096C86.5402 18.9549 86.6884 18.8384 86.8648 18.7467C87.0483 18.655 87.2636 18.6091 87.5106 18.6091C87.9199 18.6091 88.2057 18.6902 88.368 18.8526C88.5303 19.0078 88.6114 19.2054 88.6114 19.4453C88.6114 19.5794 88.5832 19.7276 88.5268 19.8899C88.4774 20.0523 88.3997 20.204 88.2939 20.3451C88.188 20.4792 88.0504 20.5921 87.881 20.6839C87.7117 20.7756 87.5106 20.8215 87.2777 20.8215C86.8401 20.8215 86.5332 20.7544 86.3567 20.6203C86.1803 20.4792 86.0815 20.2957 86.0603 20.0699ZM84.8959 22.4516C85.0159 22.254 85.1535 22.1129 85.3088 22.0282C85.464 21.9435 85.6228 21.9012 85.7851 21.9012C86.0533 21.9012 86.2826 21.9894 86.4732 22.1658C86.6708 22.3352 86.7696 22.554 86.7696 22.8221C86.7625 22.8856 86.7519 22.9492 86.7378 23.0127C86.7308 23.0762 86.7096 23.1397 86.6743 23.2032C86.5755 23.3867 86.4943 23.5419 86.4308 23.669C86.3673 23.796 86.3073 23.916 86.2509 24.0289C86.2015 24.1347 86.1521 24.2406 86.1027 24.3464C86.0533 24.4523 85.9933 24.5793 85.9227 24.7275C85.838 24.904 85.7428 25.098 85.6369 25.3097C85.5311 25.5144 85.4287 25.7261 85.3299 25.9449C85.2382 26.1636 85.157 26.3789 85.0865 26.5906C85.023 26.8023 84.9912 26.9964 84.9912 27.1728C84.9912 27.3633 85.0371 27.4904 85.1288 27.5539C85.2276 27.6103 85.3652 27.6385 85.5416 27.6385C85.7392 27.6385 85.9439 27.5962 86.1556 27.5115C86.3744 27.4268 86.5931 27.3175 86.8119 27.1834C87.0307 27.0493 87.2459 26.8976 87.4576 26.7282C87.6693 26.5518 87.8669 26.3753 88.0504 26.1989C88.241 26.0225 88.4139 25.8531 88.5691 25.6908C88.7314 25.5285 88.8655 25.3838 88.9714 25.2568C89.1125 25.1227 89.2536 25.0557 89.3948 25.0557C89.5218 25.0557 89.6241 25.1121 89.7018 25.225C89.7864 25.338 89.8288 25.4826 89.8288 25.6591C89.8288 25.8214 89.7864 25.9943 89.7018 26.1777C89.6241 26.3612 89.4936 26.5341 89.3101 26.6964C88.9502 27.0634 88.5832 27.4163 88.2092 27.755C87.8352 28.0867 87.4506 28.3831 87.0554 28.6442C86.6672 28.8982 86.2756 29.1029 85.8804 29.2581C85.4852 29.4134 85.0865 29.491 84.6842 29.491C84.1126 29.491 83.6609 29.3463 83.3293 29.057C83.0046 28.7606 82.8423 28.3019 82.8423 27.6809C82.8423 27.3563 82.8882 27.0387 82.9799 26.7282C83.0717 26.4177 83.1811 26.1178 83.3081 25.8284C83.4351 25.532 83.5692 25.2497 83.7103 24.9816C83.8515 24.7064 83.9715 24.4452 84.0703 24.1983C84.1055 24.1065 84.1655 23.9654 84.2502 23.7748C84.342 23.5843 84.4372 23.3902 84.536 23.1926C84.6489 22.9597 84.7689 22.7127 84.8959 22.4516Z" fill="#FC440F" fill-opacity="0.8"/>
</svg>
