<svg width="68" height="40" viewBox="0 0 68 40" fill="none" xmlns="http://www.w3.org/2000/svg">
<path d="M19.7906 35.2916C26.455 34.4793 30.6152 29.2739 34.3686 23.6778C39.3965 28.2351 44.6669 32.2596 51.3093 31.45C58.7668 30.5411 64.1006 23.79 63.2 16.4008C62.2994 9.01164 55.5001 3.7394 48.0426 4.64834C41.3759 5.46089 37.0834 10.7787 33.4526 16.162C28.638 11.8131 23.1884 7.67763 16.5239 8.48991C9.06599 9.39891 3.73277 16.1499 4.63338 23.5391C5.534 30.9283 12.3357 36.2002 19.7906 35.2916ZM30.7115 20.311C27.3192 25.4154 23.9772 29.8357 19.1966 30.4184C14.4304 30.9993 10.0874 27.6492 9.51422 22.9466C8.94137 18.2466 12.3522 13.949 17.1185 13.3681C21.9695 12.7744 26.2703 16.2409 30.7115 20.311ZM48.6369 9.52411C53.4028 8.94323 57.7465 12.2954 58.3194 16.9957C58.8926 21.6983 55.4809 25.9934 50.715 26.5742C45.9101 27.1599 41.5878 23.6385 37.1094 19.5264C40.4482 14.5128 43.7882 10.1151 48.6369 9.52411Z" fill="#FFD726" stroke="#FFD726" stroke-opacity="0.2" stroke-width="8"/>
</svg>
