<svg width="46" height="46" viewBox="0 0 46 46" fill="none" xmlns="http://www.w3.org/2000/svg">
<path d="M44.8037 22.0504C45.5198 22.1343 45.5214 23.1734 44.8055 23.2595L38.7994 23.9811C31.0441 24.913 24.9375 31.0376 24.0286 38.7956L23.3247 44.8038C23.2408 45.52 22.2017 45.5216 22.1156 44.8055L21.394 38.7995C20.4621 31.0442 14.3375 24.9377 6.57947 24.0288L0.57135 23.3249C-0.14492 23.2409 -0.146456 22.2019 0.569562 22.1158L6.57557 21.3941C14.3309 20.4623 20.4374 14.3376 21.3463 6.57955L22.0502 0.571434C22.1342 -0.144748 23.1732 -0.146285 23.2593 0.569646L23.981 6.57565C24.9128 14.331 31.0375 20.4376 38.7956 21.3465L44.8037 22.0504Z" fill="#FC440F"/>
</svg>
