<svg width="185" height="149" viewBox="0 0 185 149" fill="none" xmlns="http://www.w3.org/2000/svg">
<path id="Union" fill-rule="evenodd" clip-rule="evenodd" d="M183.494 0.958984H87.3948V21.3801C87.3948 31.3315 95.462 39.3987 105.413 39.3987H165.475C175.427 39.3987 183.494 31.3315 183.494 21.3801V0.958984ZM7.32287 91.7981C2.68963 80.6124 0.304932 68.6237 0.304932 56.5165H92.5001L184.695 56.5165C184.695 68.6237 182.311 80.6124 177.677 91.7981C173.044 102.984 166.253 113.147 157.692 121.708C149.131 130.269 138.967 137.061 127.782 141.694C116.596 146.327 104.607 148.712 92.5001 148.712C80.3929 148.712 68.4042 146.327 57.2185 141.694C46.0329 137.061 35.8694 130.269 27.3083 121.708C18.7472 113.147 11.9561 102.984 7.32287 91.7981Z" fill="#FFD726" fill-opacity="0.75"/>
</svg>
