<svg width="99" height="99" viewBox="0 0 99 99" fill="none" xmlns="http://www.w3.org/2000/svg">
<path id="Star" d="M97.759 48.1568C99.3216 48.34 99.325 50.6072 97.7629 50.795L84.6582 52.3696C67.7365 54.4028 54.4124 67.7664 52.4292 84.6939L50.8934 97.8031C50.7102 99.366 48.4431 99.3693 48.2552 97.807L46.6806 84.7024C44.6474 67.7808 31.2839 54.4567 14.3564 52.4736L1.24709 50.9377C-0.315754 50.7545 -0.319107 48.4874 1.24319 48.2995L14.3479 46.7249C31.2694 44.6917 44.5935 31.3282 46.5767 14.4006L48.1125 1.29126C48.2957 -0.271397 50.5629 -0.274749 50.7507 1.28736L52.3253 14.3921C54.3585 31.3138 67.722 44.6378 84.6497 46.621L97.759 48.1568Z" fill="#FFD726"/>
</svg>
