<svg width="1006" height="161" viewBox="0 0 1006 161" fill="none" xmlns="http://www.w3.org/2000/svg">
<path d="M44.8037 137.05C45.5198 137.134 45.5214 138.173 44.8055 138.259L38.7994 138.981C31.0441 139.913 24.9375 146.038 24.0286 153.796L23.3247 159.804C23.2408 160.52 22.2017 160.522 22.1156 159.806L21.394 153.8C20.4621 146.044 14.3375 139.938 6.57947 139.029L0.57135 138.325C-0.14492 138.241 -0.146456 137.202 0.569562 137.116L6.57557 136.394C14.3309 135.462 20.4374 129.338 21.3463 121.58L22.0502 115.571C22.1342 114.855 23.1732 114.854 23.2593 115.57L23.981 121.576C24.9128 129.331 31.0375 135.438 38.7956 136.346L44.8037 137.05Z" fill="#FC440F"/>
<path d="M1004.8 22.0504C1005.52 22.1343 1005.52 23.1734 1004.81 23.2595L998.799 23.9811C991.044 24.913 984.938 31.0376 984.029 38.7956L983.325 44.8038C983.241 45.52 982.202 45.5216 982.116 44.8055L981.394 38.7995C980.462 31.0442 974.337 24.9377 966.579 24.0288L960.571 23.3249C959.855 23.2409 959.854 22.2019 960.57 22.1158L966.576 21.3941C974.331 20.4623 980.437 14.3376 981.346 6.57955L982.05 0.571434C982.134 -0.144748 983.173 -0.146285 983.259 0.569646L983.981 6.57565C984.913 14.331 991.037 20.4376 998.796 21.3465L1004.8 22.0504Z" fill="#FC440F"/>
</svg>
