<svg width="67" height="35" viewBox="0 0 67 35" fill="none" xmlns="http://www.w3.org/2000/svg">
<path d="M49.376 31C42.6623 31 37.9029 26.3362 33.5 21.2353C29.0604 26.3675 24.3157 31 17.6241 31C10.1114 31 4 24.9439 4 17.5C4 10.0561 10.1114 4 17.6241 4C24.3401 4 29.2446 8.75941 33.5 13.6639C37.753 8.76443 42.6623 4 49.376 4C56.8892 4 63 10.0561 63 17.5C63 24.9439 56.8861 31 49.376 31ZM36.7229 17.4508C40.7078 22.1072 44.5601 26.0908 49.376 26.0908C54.1776 26.0908 58.0833 22.2398 58.0833 17.5024C58.0833 12.7676 54.1776 8.91424 49.376 8.91424C44.4889 8.91185 40.639 12.8732 36.7229 17.4508ZM17.6241 8.91185C12.8229 8.91185 8.91667 12.765 8.91667 17.5C8.91667 22.2374 12.8229 26.0881 17.6241 26.0881C22.4646 26.0881 26.3291 22.0697 30.2771 17.446C26.3562 12.8732 22.5087 8.91185 17.6241 8.91185Z" fill="#FC440F" stroke="#FC440F" stroke-opacity="0.2" stroke-width="8"/>
</svg>
