<svg width="68" height="40" viewBox="0 0 68 40" fill="none" xmlns="http://www.w3.org/2000/svg">
<path d="M19.7905 35.2916C26.455 34.4793 30.6151 29.2739 34.3685 23.6778C39.3965 28.2351 44.6668 32.2596 51.3092 31.45C58.7667 30.5411 64.1005 23.79 63.1999 16.4008C62.2993 9.01164 55.5001 3.7394 48.0426 4.64834C41.3759 5.46089 37.0833 10.7787 33.4525 16.162C28.6379 11.8131 23.1883 7.67763 16.5239 8.48991C9.06593 9.39891 3.73271 16.1499 4.63332 23.5391C5.53394 30.9283 12.3357 36.2002 19.7905 35.2916ZM30.7114 20.311C27.3191 25.4154 23.9771 29.8357 19.1966 30.4184C14.4303 30.9993 10.0873 27.6492 9.51416 22.9466C8.94131 18.2466 12.3522 13.949 17.1184 13.3681C21.9694 12.7744 26.2703 16.2409 30.7114 20.311ZM48.6369 9.52411C53.4027 8.94323 57.7465 12.2954 58.3194 16.9957C58.8925 21.6983 55.4808 25.9934 50.715 26.5742C45.91 27.1599 41.5877 23.6385 37.1093 19.5264C40.4482 14.5128 43.7881 10.1151 48.6369 9.52411Z" fill="#FFD726" stroke="#FFD726" stroke-opacity="0.2" stroke-width="8"/>
</svg>
