<svg width="1257" height="272" viewBox="0 0 1257 272" fill="none" xmlns="http://www.w3.org/2000/svg">
<path d="M1075.52 80.2875C1076.38 74.5708 1084.62 74.5708 1085.48 80.2875C1085.81 82.4737 1087.53 84.1899 1089.71 84.5189C1095.43 85.3793 1095.43 93.6207 1089.71 94.4811C1087.53 94.8101 1085.81 96.5263 1085.48 98.7125C1084.62 104.429 1076.38 104.429 1075.52 98.7125C1075.19 96.5263 1073.47 94.8101 1071.29 94.4811C1065.57 93.6207 1065.57 85.3793 1071.29 84.5189C1073.47 84.1899 1075.19 82.4737 1075.52 80.2875Z" fill="#FFD726" stroke="#FFD726" stroke-opacity="0.2" stroke-width="10"/>
<path d="M107.481 9.28751C106.621 3.57083 98.3793 3.57083 97.5189 9.28751C97.1899 11.4737 95.4737 13.1899 93.2875 13.5189C87.5708 14.3793 87.5708 22.6207 93.2875 23.4811C95.4737 23.8101 97.1899 25.5263 97.5189 27.7125C98.3793 33.4292 106.621 33.4292 107.481 27.7125C107.81 25.5263 109.526 23.8101 111.712 23.4811C117.429 22.6207 117.429 14.3793 111.712 13.5189C109.526 13.1899 107.81 11.4737 107.481 9.28751Z" fill="#FC440F" stroke="#FC440F" stroke-opacity="0.2" stroke-width="10"/>
<path d="M1239.38 248C1232.66 248 1227.9 243.336 1223.5 238.235C1219.06 243.367 1214.32 248 1207.62 248C1200.11 248 1194 241.944 1194 234.5C1194 227.056 1200.11 221 1207.62 221C1214.34 221 1219.24 225.759 1223.5 230.664C1227.75 225.764 1232.66 221 1239.38 221C1246.89 221 1253 227.056 1253 234.5C1253 241.944 1246.89 248 1239.38 248ZM1226.72 234.451C1230.71 239.107 1234.56 243.091 1239.38 243.091C1244.18 243.091 1248.08 239.24 1248.08 234.502C1248.08 229.768 1244.18 225.914 1239.38 225.914C1234.49 225.912 1230.64 229.873 1226.72 234.451ZM1207.62 225.912C1202.82 225.912 1198.92 229.765 1198.92 234.5C1198.92 239.237 1202.82 243.088 1207.62 243.088C1212.46 243.088 1216.33 239.07 1220.28 234.446C1216.36 229.873 1212.51 225.912 1207.62 225.912Z" fill="#FC440F" stroke="#FC440F" stroke-opacity="0.2" stroke-width="8"/>
<path d="M19.7905 267.292C26.455 266.479 30.6151 261.274 34.3685 255.678C39.3965 260.235 44.6668 264.26 51.3092 263.45C58.7667 262.541 64.1005 255.79 63.1999 248.401C62.2993 241.012 55.5001 235.739 48.0426 236.648C41.3759 237.461 37.0833 242.779 33.4525 248.162C28.6379 243.813 23.1883 239.678 16.5239 240.49C9.06593 241.399 3.73271 248.15 4.63332 255.539C5.53394 262.928 12.3357 268.2 19.7905 267.292ZM30.7114 252.311C27.3191 257.415 23.9771 261.836 19.1966 262.418C14.4303 262.999 10.0873 259.649 9.51416 254.947C8.94131 250.247 12.3522 245.949 17.1184 245.368C21.9694 244.774 26.2703 248.241 30.7114 252.311ZM48.6369 241.524C53.4027 240.943 57.7465 244.295 58.3194 248.996C58.8925 253.698 55.4808 257.993 50.715 258.574C45.91 259.16 41.5877 255.638 37.1093 251.526C40.4482 246.513 43.7881 242.115 48.6369 241.524Z" fill="#FFD726" stroke="#FFD726" stroke-opacity="0.2" stroke-width="8"/>
</svg>
