<svg width="45" height="44" viewBox="0 0 45 44" fill="none" xmlns="http://www.w3.org/2000/svg">
<path d="M43.8088 21.5773C44.4978 21.6581 44.4992 22.6577 43.8105 22.7405L38.0329 23.4347C30.5724 24.3311 24.698 30.2229 23.8237 37.6859L23.1466 43.4656C23.0658 44.1546 22.0663 44.1561 21.9834 43.4673L21.2892 37.6897C20.3928 30.2292 14.5011 24.3549 7.03803 23.4805L1.25836 22.8034C0.569332 22.7226 0.567854 21.7231 1.25664 21.6403L7.03428 20.9461C14.4947 20.0497 20.3691 14.1579 21.2434 6.69479L21.9205 0.915123C22.0013 0.226173 23.0008 0.224695 23.0837 0.913403L23.7779 6.69104C24.6743 14.1515 30.566 20.0259 38.0291 20.9002L43.8088 21.5773Z" fill="#FFD726"/>
</svg>
